<svg width="63" height="55" viewBox="0 0 63 55" fill="none" xmlns="http://www.w3.org/2000/svg">
<path d="M36.7508 10.6928H26.2492L31.495 19.8594L36.7508 10.6928ZM24.9402 11.4608L19.6844 20.6275H30.186L24.9402 11.4608ZM43.3156 20.6275L38.0598 11.4608L32.814 20.6275H43.3156ZM32.814 22.1536L38.0598 31.3203L43.3156 22.1536H32.814ZM19.6844 22.1536L24.9402 31.3203L30.186 22.1536H19.6844ZM13.1196 32.0783H23.6213L18.3754 22.9217L13.1196 32.0783ZM49.8704 32.0783L44.6246 22.9217L39.3787 32.0783H49.8704ZM31.495 0L26.2492 9.16667H36.7508L31.495 0ZM44.6246 42.7711L49.8704 33.6144H39.3787L44.6246 42.7711ZM18.3754 42.7711L23.6213 33.6144H13.1196L18.3754 42.7711ZM6.56479 43.5392H17.0565L11.8106 34.3725L6.56479 43.5392ZM56.4352 43.5392L51.1894 34.3725L45.9335 43.5392H56.4352ZM45.9335 45.0653L51.1894 54.232L56.4352 45.0653H45.9335ZM32.814 45.0653L38.0598 54.232L43.3156 45.0653H32.814ZM11.8106 54.232L17.0565 45.0653H6.56479L11.8106 54.232ZM0 55H10.5017L5.24584 45.8333L0 55ZM26.2492 55H36.7508L31.495 45.8333L26.2492 55ZM39.3787 55H49.8704L44.6246 45.8333L39.3787 55ZM57.7542 45.8333L52.4983 55H63L57.7542 45.8333Z" fill="white"/>
</svg>
